<mxfile host="Electron" modified="2024-07-24T15:57:22.859Z" agent="Mozilla/5.0 (Macintosh; Intel Mac OS X 10_15_7) AppleWebKit/537.36 (KHTML, like Gecko) draw.io/24.2.5 Chrome/120.0.6099.109 Electron/28.1.0 Safari/537.36" etag="6_CZ7GWmULb_5jCbHeyi" version="24.2.5" type="device" pages="2">
  <diagram name="Page-1" id="DeBseBWq3in80cft9qD8">
    <mxGraphModel dx="1224" dy="2037" grid="1" gridSize="10" guides="1" tooltips="1" connect="1" arrows="1" fold="1" page="1" pageScale="1" pageWidth="827" pageHeight="1169" math="0" shadow="0">
      <root>
        <mxCell id="0" />
        <mxCell id="1" parent="0" />
        <mxCell id="wf-TVDKNXgqIJZ-00V4I-2" value="Prisma CLoud Tenant" style="rounded=1;whiteSpace=wrap;html=1;sketch=1;jiggle=2;curveFitting=1;strokeColor=default;align=center;verticalAlign=middle;fontFamily=Gloria Hallelujah;fontSize=16;fontColor=default;fillColor=default;fontSource=https%3A%2F%2Ffonts.googleapis.com%2Fcss%3Ffamily%3DGloria%2BHallelujah;" parent="1" vertex="1">
          <mxGeometry x="120" y="380" width="280" height="90" as="geometry" />
        </mxCell>
        <mxCell id="wf-TVDKNXgqIJZ-00V4I-5" value="Tenant Pairing" style="edgeStyle=orthogonalEdgeStyle;rounded=0;orthogonalLoop=1;jettySize=auto;html=1;exitX=0.25;exitY=1;exitDx=0;exitDy=0;entryX=0.5;entryY=1;entryDx=0;entryDy=0;fontFamily=Gloria Hallelujah;fontSource=https%3A%2F%2Ffonts.googleapis.com%2Fcss%3Ffamily%3DGloria%2BHallelujah;fontSize=16;fontColor=default;flowAnimation=1;strokeWidth=2;curved=1;" parent="1" source="wf-TVDKNXgqIJZ-00V4I-3" target="wf-TVDKNXgqIJZ-00V4I-2" edge="1">
          <mxGeometry relative="1" as="geometry">
            <Array as="points">
              <mxPoint x="750" y="560" />
              <mxPoint x="260" y="560" />
            </Array>
          </mxGeometry>
        </mxCell>
        <mxCell id="wf-TVDKNXgqIJZ-00V4I-27" value="Sync Information&lt;br&gt;(Vul &amp;amp; Compliance)" style="edgeStyle=orthogonalEdgeStyle;curved=1;rounded=0;orthogonalLoop=1;jettySize=auto;html=1;exitX=0;exitY=0.25;exitDx=0;exitDy=0;entryX=1;entryY=0.25;entryDx=0;entryDy=0;strokeColor=#7F00FF;strokeWidth=2;align=center;verticalAlign=middle;fontFamily=Gloria Hallelujah;fontSource=https%3A%2F%2Ffonts.googleapis.com%2Fcss%3Ffamily%3DGloria%2BHallelujah;fontSize=16;fontColor=default;labelBackgroundColor=default;endArrow=classic;flowAnimation=1;" parent="1" source="wf-TVDKNXgqIJZ-00V4I-3" target="wf-TVDKNXgqIJZ-00V4I-2" edge="1">
          <mxGeometry relative="1" as="geometry" />
        </mxCell>
        <mxCell id="wf-TVDKNXgqIJZ-00V4I-3" value="Cortex XDR Tenant" style="rounded=1;whiteSpace=wrap;html=1;sketch=1;jiggle=2;curveFitting=1;strokeColor=default;align=center;verticalAlign=middle;fontFamily=Gloria Hallelujah;fontSize=16;fontColor=default;fillColor=default;fontSource=https%3A%2F%2Ffonts.googleapis.com%2Fcss%3Ffamily%3DGloria%2BHallelujah;" parent="1" vertex="1">
          <mxGeometry x="680" y="380" width="280" height="90" as="geometry" />
        </mxCell>
        <mxCell id="wf-TVDKNXgqIJZ-00V4I-6" value="Same Region" style="whiteSpace=wrap;html=1;shape=mxgraph.basic.oval_callout;rounded=1;sketch=1;jiggle=2;curveFitting=1;strokeColor=default;align=center;verticalAlign=middle;fontFamily=Gloria Hallelujah;fontSource=https%3A%2F%2Ffonts.googleapis.com%2Fcss%3Ffamily%3DGloria%2BHallelujah;fontSize=16;fontColor=default;fillColor=default;" parent="1" vertex="1">
          <mxGeometry x="498" y="460" width="160" height="60" as="geometry" />
        </mxCell>
        <mxCell id="wf-TVDKNXgqIJZ-00V4I-7" value="" style="rounded=1;whiteSpace=wrap;html=1;sketch=1;jiggle=2;curveFitting=1;strokeColor=default;align=center;verticalAlign=middle;fontFamily=Gloria Hallelujah;fontSource=https%3A%2F%2Ffonts.googleapis.com%2Fcss%3Ffamily%3DGloria%2BHallelujah;fontSize=16;fontColor=default;fillColor=default;arcSize=3;" parent="1" vertex="1">
          <mxGeometry x="250" y="-50" width="560" height="290" as="geometry" />
        </mxCell>
        <mxCell id="wf-TVDKNXgqIJZ-00V4I-8" value="" style="shape=image;imageAspect=0;aspect=fixed;verticalLabelPosition=bottom;verticalAlign=top;rounded=1;sketch=1;jiggle=2;curveFitting=1;strokeColor=default;align=center;fontFamily=Gloria Hallelujah;fontSource=https%3A%2F%2Ffonts.googleapis.com%2Fcss%3Ffamily%3DGloria%2BHallelujah;fontSize=16;fontColor=default;fillColor=default;image=https://upload.wikimedia.org/wikipedia/commons/thumb/9/93/Amazon_Web_Services_Logo.svg/1024px-Amazon_Web_Services_Logo.svg.png;" parent="1" vertex="1">
          <mxGeometry x="260" y="-40" width="50.16" height="30" as="geometry" />
        </mxCell>
        <mxCell id="wf-TVDKNXgqIJZ-00V4I-9" value="Demo VPC" style="rounded=1;whiteSpace=wrap;html=1;sketch=1;jiggle=2;curveFitting=1;strokeColor=default;align=center;verticalAlign=bottom;fontFamily=Gloria Hallelujah;fontSource=https%3A%2F%2Ffonts.googleapis.com%2Fcss%3Ffamily%3DGloria%2BHallelujah;fontSize=16;fontColor=default;fillColor=default;arcSize=7;" parent="1" vertex="1">
          <mxGeometry x="280" width="510" height="200" as="geometry" />
        </mxCell>
        <mxCell id="wf-TVDKNXgqIJZ-00V4I-11" value="" style="rounded=0;whiteSpace=wrap;html=1;sketch=1;jiggle=2;curveFitting=1;strokeColor=default;align=center;verticalAlign=middle;fontFamily=Gloria Hallelujah;fontSource=https%3A%2F%2Ffonts.googleapis.com%2Fcss%3Ffamily%3DGloria%2BHallelujah;fontSize=16;fontColor=default;fillColor=default;" parent="1" vertex="1">
          <mxGeometry x="310.16" y="30" width="459.84" height="140" as="geometry" />
        </mxCell>
        <mxCell id="wf-TVDKNXgqIJZ-00V4I-10" value="" style="sketch=0;points=[[0,0,0],[0.25,0,0],[0.5,0,0],[0.75,0,0],[1,0,0],[0,1,0],[0.25,1,0],[0.5,1,0],[0.75,1,0],[1,1,0],[0,0.25,0],[0,0.5,0],[0,0.75,0],[1,0.25,0],[1,0.5,0],[1,0.75,0]];outlineConnect=0;fontColor=#232F3E;fillColor=#ED7100;strokeColor=#ffffff;dashed=0;verticalLabelPosition=bottom;verticalAlign=top;align=center;html=1;fontSize=12;fontStyle=0;aspect=fixed;shape=mxgraph.aws4.resourceIcon;resIcon=mxgraph.aws4.eks;rounded=1;jiggle=2;curveFitting=1;fontFamily=Gloria Hallelujah;fontSource=https%3A%2F%2Ffonts.googleapis.com%2Fcss%3Ffamily%3DGloria%2BHallelujah;" parent="1" vertex="1">
          <mxGeometry x="300" y="10" width="48" height="48" as="geometry" />
        </mxCell>
        <mxCell id="wf-TVDKNXgqIJZ-00V4I-13" value="EKS Nodes" style="sketch=0;points=[[0,0,0],[0.25,0,0],[0.5,0,0],[0.75,0,0],[1,0,0],[0,1,0],[0.25,1,0],[0.5,1,0],[0.75,1,0],[1,1,0],[0,0.25,0],[0,0.5,0],[0,0.75,0],[1,0.25,0],[1,0.5,0],[1,0.75,0]];outlineConnect=0;fontColor=#232F3E;fillColor=#ED7100;strokeColor=#ffffff;dashed=0;verticalLabelPosition=bottom;verticalAlign=top;align=center;html=1;fontSize=12;fontStyle=0;aspect=fixed;shape=mxgraph.aws4.resourceIcon;resIcon=mxgraph.aws4.ec2;rounded=1;jiggle=2;curveFitting=1;fontFamily=Gloria Hallelujah;fontSource=https%3A%2F%2Ffonts.googleapis.com%2Fcss%3Ffamily%3DGloria%2BHallelujah;" parent="1" vertex="1">
          <mxGeometry x="360" y="60" width="48" height="48" as="geometry" />
        </mxCell>
        <mxCell id="wf-TVDKNXgqIJZ-00V4I-14" value="EKS Nodes" style="sketch=0;points=[[0,0,0],[0.25,0,0],[0.5,0,0],[0.75,0,0],[1,0,0],[0,1,0],[0.25,1,0],[0.5,1,0],[0.75,1,0],[1,1,0],[0,0.25,0],[0,0.5,0],[0,0.75,0],[1,0.25,0],[1,0.5,0],[1,0.75,0]];outlineConnect=0;fontColor=#232F3E;fillColor=#ED7100;strokeColor=#ffffff;dashed=0;verticalLabelPosition=bottom;verticalAlign=top;align=center;html=1;fontSize=12;fontStyle=0;aspect=fixed;shape=mxgraph.aws4.resourceIcon;resIcon=mxgraph.aws4.ec2;rounded=1;jiggle=2;curveFitting=1;fontFamily=Gloria Hallelujah;fontSource=https%3A%2F%2Ffonts.googleapis.com%2Fcss%3Ffamily%3DGloria%2BHallelujah;" parent="1" vertex="1">
          <mxGeometry x="450" y="60" width="48" height="48" as="geometry" />
        </mxCell>
        <mxCell id="wf-TVDKNXgqIJZ-00V4I-16" value="1" style="ellipse;whiteSpace=wrap;html=1;aspect=fixed;rounded=1;sketch=1;jiggle=2;curveFitting=1;strokeColor=#d6b656;align=center;verticalAlign=middle;fontFamily=Gloria Hallelujah;fontSource=https%3A%2F%2Ffonts.googleapis.com%2Fcss%3Ffamily%3DGloria%2BHallelujah;fontSize=16;fillColor=#fff2cc;gradientColor=#ffd966;" parent="1" vertex="1">
          <mxGeometry x="414" y="500" width="50" height="50" as="geometry" />
        </mxCell>
        <mxCell id="wf-TVDKNXgqIJZ-00V4I-18" value="Deploy Cortex XDR Agent for Cloud&amp;nbsp;&lt;div&gt;i.e.new version XDR Agent&lt;/div&gt;" style="edgeStyle=orthogonalEdgeStyle;rounded=0;orthogonalLoop=1;jettySize=auto;html=1;exitX=0.5;exitY=0;exitDx=0;exitDy=0;entryX=1;entryY=0.25;entryDx=0;entryDy=0;fontFamily=Gloria Hallelujah;fontSource=https%3A%2F%2Ffonts.googleapis.com%2Fcss%3Ffamily%3DGloria%2BHallelujah;fontSize=16;fontColor=default;curved=1;strokeWidth=2;flowAnimation=1;" parent="1" source="wf-TVDKNXgqIJZ-00V4I-3" target="Dj5nnFNM3NFAsnsZiGWA-4" edge="1">
          <mxGeometry x="-0.8706" y="-110" relative="1" as="geometry">
            <mxPoint as="offset" />
          </mxGeometry>
        </mxCell>
        <mxCell id="wf-TVDKNXgqIJZ-00V4I-20" value="Yaml&lt;div&gt;Helm&lt;/div&gt;" style="whiteSpace=wrap;html=1;shape=mxgraph.basic.document;rounded=1;sketch=1;jiggle=2;curveFitting=1;strokeColor=default;align=center;verticalAlign=middle;fontFamily=Gloria Hallelujah;fontSource=https%3A%2F%2Ffonts.googleapis.com%2Fcss%3Ffamily%3DGloria%2BHallelujah;fontSize=16;fontColor=default;fillColor=default;" parent="1" vertex="1">
          <mxGeometry x="860" y="190" width="80" height="100" as="geometry" />
        </mxCell>
        <mxCell id="wf-TVDKNXgqIJZ-00V4I-21" value="2" style="ellipse;whiteSpace=wrap;html=1;aspect=fixed;rounded=1;sketch=1;jiggle=2;curveFitting=1;strokeColor=#d6b656;align=center;verticalAlign=middle;fontFamily=Gloria Hallelujah;fontSource=https%3A%2F%2Ffonts.googleapis.com%2Fcss%3Ffamily%3DGloria%2BHallelujah;fontSize=16;fillColor=#fff2cc;gradientColor=#ffd966;" parent="1" vertex="1">
          <mxGeometry x="840" y="480" width="50" height="50" as="geometry" />
        </mxCell>
        <mxCell id="wf-TVDKNXgqIJZ-00V4I-22" value="Enable Vulnerability &amp;amp; Compliance Scanning" style="text;html=1;align=center;verticalAlign=middle;whiteSpace=wrap;rounded=0;fontFamily=Gloria Hallelujah;fontSource=https%3A%2F%2Ffonts.googleapis.com%2Fcss%3Ffamily%3DGloria%2BHallelujah;fontSize=16;fontColor=default;" parent="1" vertex="1">
          <mxGeometry x="900" y="490" width="180" height="30" as="geometry" />
        </mxCell>
        <mxCell id="wf-TVDKNXgqIJZ-00V4I-25" value="Managed as&lt;div&gt;and a Endpoint&lt;/div&gt;" style="edgeStyle=orthogonalEdgeStyle;curved=1;rounded=0;orthogonalLoop=1;jettySize=auto;html=1;exitX=1;exitY=0.75;exitDx=0;exitDy=0;exitPerimeter=0;entryX=0.107;entryY=0.011;entryDx=0;entryDy=0;entryPerimeter=0;strokeColor=#7F00FF;strokeWidth=2;align=center;verticalAlign=middle;fontFamily=Gloria Hallelujah;fontSource=https%3A%2F%2Ffonts.googleapis.com%2Fcss%3Ffamily%3DGloria%2BHallelujah;fontSize=16;fontColor=default;labelBackgroundColor=default;endArrow=classic;flowAnimation=1;" parent="1" source="Dj5nnFNM3NFAsnsZiGWA-4" target="wf-TVDKNXgqIJZ-00V4I-3" edge="1">
          <mxGeometry x="0.5936" y="-20" relative="1" as="geometry">
            <mxPoint as="offset" />
          </mxGeometry>
        </mxCell>
        <mxCell id="wf-TVDKNXgqIJZ-00V4I-17" value="3" style="ellipse;whiteSpace=wrap;html=1;aspect=fixed;rounded=1;sketch=1;jiggle=2;curveFitting=1;strokeColor=#d6b656;align=center;verticalAlign=middle;fontFamily=Gloria Hallelujah;fontSource=https%3A%2F%2Ffonts.googleapis.com%2Fcss%3Ffamily%3DGloria%2BHallelujah;fontSize=16;fillColor=#fff2cc;gradientColor=#ffd966;" parent="1" vertex="1">
          <mxGeometry x="830" y="260" width="50" height="50" as="geometry" />
        </mxCell>
        <mxCell id="wf-TVDKNXgqIJZ-00V4I-28" value="4" style="ellipse;whiteSpace=wrap;html=1;aspect=fixed;rounded=1;sketch=1;jiggle=2;curveFitting=1;strokeColor=#6c8ebf;align=center;verticalAlign=middle;fontFamily=Gloria Hallelujah;fontSource=https%3A%2F%2Ffonts.googleapis.com%2Fcss%3Ffamily%3DGloria%2BHallelujah;fontSize=16;fillColor=#dae8fc;gradientColor=#7ea6e0;" parent="1" vertex="1">
          <mxGeometry x="570" y="250" width="50" height="50" as="geometry" />
        </mxCell>
        <mxCell id="wf-TVDKNXgqIJZ-00V4I-29" value="5" style="ellipse;whiteSpace=wrap;html=1;aspect=fixed;rounded=1;sketch=1;jiggle=2;curveFitting=1;strokeColor=#6c8ebf;align=center;verticalAlign=middle;fontFamily=Gloria Hallelujah;fontSource=https%3A%2F%2Ffonts.googleapis.com%2Fcss%3Ffamily%3DGloria%2BHallelujah;fontSize=16;fillColor=#dae8fc;gradientColor=#7ea6e0;" parent="1" vertex="1">
          <mxGeometry x="420" y="340" width="50" height="50" as="geometry" />
        </mxCell>
        <mxCell id="wf-TVDKNXgqIJZ-00V4I-30" value="" style="shape=image;imageAspect=0;aspect=fixed;verticalLabelPosition=bottom;verticalAlign=top;rounded=1;sketch=1;jiggle=2;curveFitting=1;strokeColor=default;align=center;fontFamily=Gloria Hallelujah;fontSource=https%3A%2F%2Ffonts.googleapis.com%2Fcss%3Ffamily%3DGloria%2BHallelujah;fontSize=16;fontColor=default;labelBackgroundColor=default;fillColor=default;image=https://plugins.jetbrains.com/files/21907/522769/icon/pluginIcon.png;" parent="1" vertex="1">
          <mxGeometry x="120" y="400" width="50" height="50" as="geometry" />
        </mxCell>
        <mxCell id="wf-TVDKNXgqIJZ-00V4I-31" value="" style="shape=image;imageAspect=0;aspect=fixed;verticalLabelPosition=bottom;verticalAlign=top;rounded=1;sketch=1;jiggle=2;curveFitting=1;strokeColor=default;align=center;fontFamily=Gloria Hallelujah;fontSource=https%3A%2F%2Ffonts.googleapis.com%2Fcss%3Ffamily%3DGloria%2BHallelujah;fontSize=16;fontColor=default;labelBackgroundColor=default;fillColor=default;image=https://yt3.googleusercontent.com/ytc/AIdro_kiiHmvhDeeTNr9bUmVXWjYGR1NhWpfUqvjTzuLPhjlNQY=s900-c-k-c0x00ffffff-no-rj;" parent="1" vertex="1">
          <mxGeometry x="690" y="400" width="50" height="50" as="geometry" />
        </mxCell>
        <mxCell id="Dj5nnFNM3NFAsnsZiGWA-1" value="SecOps" style="shape=umlActor;verticalLabelPosition=bottom;verticalAlign=top;html=1;outlineConnect=0;sketch=1;hachureGap=4;jiggle=2;curveFitting=1;fontFamily=Architects Daughter;fontSource=https%3A%2F%2Ffonts.googleapis.com%2Fcss%3Ffamily%3DArchitects%2BDaughter;fontSize=16;" vertex="1" parent="1">
          <mxGeometry x="810" y="600" width="30" height="60" as="geometry" />
        </mxCell>
        <mxCell id="Dj5nnFNM3NFAsnsZiGWA-2" value="DevOps" style="shape=umlActor;verticalLabelPosition=bottom;verticalAlign=top;html=1;outlineConnect=0;sketch=1;hachureGap=4;jiggle=2;curveFitting=1;fontFamily=Architects Daughter;fontSource=https%3A%2F%2Ffonts.googleapis.com%2Fcss%3Ffamily%3DArchitects%2BDaughter;fontSize=16;" vertex="1" parent="1">
          <mxGeometry x="170" y="600" width="30" height="60" as="geometry" />
        </mxCell>
        <mxCell id="Dj5nnFNM3NFAsnsZiGWA-3" value="CloudOps" style="shape=umlActor;verticalLabelPosition=bottom;verticalAlign=top;html=1;outlineConnect=0;sketch=1;hachureGap=4;jiggle=2;curveFitting=1;fontFamily=Architects Daughter;fontSource=https%3A%2F%2Ffonts.googleapis.com%2Fcss%3Ffamily%3DArchitects%2BDaughter;fontSize=16;" vertex="1" parent="1">
          <mxGeometry x="243" y="600" width="30" height="60" as="geometry" />
        </mxCell>
        <mxCell id="Dj5nnFNM3NFAsnsZiGWA-5" value="" style="edgeStyle=orthogonalEdgeStyle;curved=1;rounded=0;orthogonalLoop=1;jettySize=auto;html=1;exitX=1;exitY=0.75;exitDx=0;exitDy=0;exitPerimeter=0;entryX=0.107;entryY=0.011;entryDx=0;entryDy=0;entryPerimeter=0;strokeColor=#7F00FF;strokeWidth=2;align=center;verticalAlign=middle;fontFamily=Gloria Hallelujah;fontSource=https%3A%2F%2Ffonts.googleapis.com%2Fcss%3Ffamily%3DGloria%2BHallelujah;fontSize=16;fontColor=default;labelBackgroundColor=default;endArrow=classic;flowAnimation=1;" edge="1" parent="1" source="wf-TVDKNXgqIJZ-00V4I-14" target="Dj5nnFNM3NFAsnsZiGWA-4">
          <mxGeometry x="0.5936" y="-20" relative="1" as="geometry">
            <mxPoint as="offset" />
            <mxPoint x="498" y="96" as="sourcePoint" />
            <mxPoint x="710" y="381" as="targetPoint" />
          </mxGeometry>
        </mxCell>
        <mxCell id="Dj5nnFNM3NFAsnsZiGWA-4" value="Single&lt;div&gt;Agent&lt;/div&gt;" style="rounded=1;whiteSpace=wrap;html=1;sketch=1;hachureGap=4;jiggle=2;curveFitting=1;fontFamily=Architects Daughter;fontSource=https%3A%2F%2Ffonts.googleapis.com%2Fcss%3Ffamily%3DArchitects%2BDaughter;" vertex="1" parent="1">
          <mxGeometry x="498" y="80" width="50" height="40" as="geometry" />
        </mxCell>
        <mxCell id="Dj5nnFNM3NFAsnsZiGWA-6" value="" style="shape=image;imageAspect=0;aspect=fixed;verticalLabelPosition=bottom;verticalAlign=top;rounded=1;sketch=1;jiggle=2;curveFitting=1;strokeColor=default;align=center;fontFamily=Gloria Hallelujah;fontSource=https%3A%2F%2Ffonts.googleapis.com%2Fcss%3Ffamily%3DGloria%2BHallelujah;fontSize=16;fontColor=default;labelBackgroundColor=default;fillColor=default;image=https://plugins.jetbrains.com/files/21907/522769/icon/pluginIcon.png;" vertex="1" parent="1">
          <mxGeometry x="498" y="50" width="30" height="30" as="geometry" />
        </mxCell>
        <mxCell id="Dj5nnFNM3NFAsnsZiGWA-7" value="" style="shape=image;imageAspect=0;aspect=fixed;verticalLabelPosition=bottom;verticalAlign=top;rounded=1;sketch=1;jiggle=2;curveFitting=1;strokeColor=default;align=center;fontFamily=Gloria Hallelujah;fontSource=https%3A%2F%2Ffonts.googleapis.com%2Fcss%3Ffamily%3DGloria%2BHallelujah;fontSize=16;fontColor=default;labelBackgroundColor=default;fillColor=default;image=https://yt3.googleusercontent.com/ytc/AIdro_kiiHmvhDeeTNr9bUmVXWjYGR1NhWpfUqvjTzuLPhjlNQY=s900-c-k-c0x00ffffff-no-rj;" vertex="1" parent="1">
          <mxGeometry x="528" y="50" width="30" height="30" as="geometry" />
        </mxCell>
      </root>
    </mxGraphModel>
  </diagram>
  <diagram name="Dark Mode" id="l2e7QeWOp9RXcMoSGG4W">
    <mxGraphModel dx="1632" dy="1557" grid="0" gridSize="10" guides="1" tooltips="1" connect="1" arrows="1" fold="1" page="0" pageScale="1" pageWidth="827" pageHeight="1169" math="0" shadow="0">
      <root>
        <mxCell id="AKnml9NxmIc-Cpv7l16K-0" />
        <mxCell id="AKnml9NxmIc-Cpv7l16K-1" parent="AKnml9NxmIc-Cpv7l16K-0" />
        <mxCell id="VHwAGWiwYtG1AxDDcsj9-14" value="Alerts" style="edgeStyle=orthogonalEdgeStyle;curved=1;rounded=0;orthogonalLoop=1;jettySize=auto;html=1;entryX=0;entryY=0.5;entryDx=0;entryDy=0;strokeColor=#FFFFFF;strokeWidth=2;align=center;verticalAlign=middle;fontFamily=Gloria Hallelujah;fontSource=https%3A%2F%2Ffonts.googleapis.com%2Fcss%3Ffamily%3DGloria%2BHallelujah;fontSize=16;fontColor=default;labelBackgroundColor=default;endArrow=classic;flowAnimation=0;exitX=0.5;exitY=1;exitDx=0;exitDy=0;sketch=1;curveFitting=1;jiggle=2;" edge="1" parent="AKnml9NxmIc-Cpv7l16K-1" source="AKnml9NxmIc-Cpv7l16K-2" target="VHwAGWiwYtG1AxDDcsj9-9">
          <mxGeometry x="-0.1608" y="30" relative="1" as="geometry">
            <mxPoint y="-1" as="offset" />
          </mxGeometry>
        </mxCell>
        <mxCell id="AKnml9NxmIc-Cpv7l16K-2" value="Prisma CLoud Tenant" style="rounded=1;whiteSpace=wrap;html=1;sketch=1;jiggle=2;curveFitting=1;strokeColor=default;align=center;verticalAlign=middle;fontFamily=Gloria Hallelujah;fontSize=20;fontColor=default;fillColor=default;fontSource=https%3A%2F%2Ffonts.googleapis.com%2Fcss%3Ffamily%3DGloria%2BHallelujah;spacingLeft=32;" vertex="1" parent="AKnml9NxmIc-Cpv7l16K-1">
          <mxGeometry x="120" y="380" width="280" height="90" as="geometry" />
        </mxCell>
        <mxCell id="AKnml9NxmIc-Cpv7l16K-3" value="Tenant Pairing" style="edgeStyle=orthogonalEdgeStyle;rounded=0;orthogonalLoop=1;jettySize=auto;html=1;exitX=0.25;exitY=1;exitDx=0;exitDy=0;entryX=0.75;entryY=1;entryDx=0;entryDy=0;fontFamily=Gloria Hallelujah;fontSource=https%3A%2F%2Ffonts.googleapis.com%2Fcss%3Ffamily%3DGloria%2BHallelujah;fontSize=16;fontColor=default;flowAnimation=1;strokeWidth=2;curved=1;" edge="1" parent="AKnml9NxmIc-Cpv7l16K-1" source="AKnml9NxmIc-Cpv7l16K-5" target="AKnml9NxmIc-Cpv7l16K-2">
          <mxGeometry relative="1" as="geometry">
            <Array as="points">
              <mxPoint x="750" y="590" />
              <mxPoint x="330" y="590" />
            </Array>
          </mxGeometry>
        </mxCell>
        <mxCell id="AKnml9NxmIc-Cpv7l16K-4" value="Sync Information&lt;br&gt;(Vul &amp;amp; Compliance)" style="edgeStyle=orthogonalEdgeStyle;curved=1;rounded=0;orthogonalLoop=1;jettySize=auto;html=1;exitX=0;exitY=0.25;exitDx=0;exitDy=0;entryX=1;entryY=0.25;entryDx=0;entryDy=0;strokeColor=#FF00FF;strokeWidth=2;align=center;verticalAlign=middle;fontFamily=Gloria Hallelujah;fontSource=https%3A%2F%2Ffonts.googleapis.com%2Fcss%3Ffamily%3DGloria%2BHallelujah;fontSize=16;fontColor=default;labelBackgroundColor=default;endArrow=classic;flowAnimation=1;" edge="1" parent="AKnml9NxmIc-Cpv7l16K-1" source="AKnml9NxmIc-Cpv7l16K-5" target="AKnml9NxmIc-Cpv7l16K-2">
          <mxGeometry relative="1" as="geometry" />
        </mxCell>
        <mxCell id="AKnml9NxmIc-Cpv7l16K-5" value="Cortex XDR Tenant" style="rounded=1;whiteSpace=wrap;html=1;sketch=1;jiggle=2;curveFitting=1;strokeColor=default;align=center;verticalAlign=middle;fontFamily=Gloria Hallelujah;fontSize=20;fontColor=default;fillColor=default;fontSource=https%3A%2F%2Ffonts.googleapis.com%2Fcss%3Ffamily%3DGloria%2BHallelujah;spacingLeft=32;" vertex="1" parent="AKnml9NxmIc-Cpv7l16K-1">
          <mxGeometry x="680" y="380" width="280" height="90" as="geometry" />
        </mxCell>
        <mxCell id="AKnml9NxmIc-Cpv7l16K-6" value="Same Region" style="whiteSpace=wrap;html=1;shape=mxgraph.basic.oval_callout;rounded=1;sketch=1;jiggle=2;curveFitting=1;strokeColor=default;align=center;verticalAlign=middle;fontFamily=Gloria Hallelujah;fontSource=https%3A%2F%2Ffonts.googleapis.com%2Fcss%3Ffamily%3DGloria%2BHallelujah;fontSize=16;fontColor=default;fillColor=default;" vertex="1" parent="AKnml9NxmIc-Cpv7l16K-1">
          <mxGeometry x="515" y="500" width="160" height="60" as="geometry" />
        </mxCell>
        <mxCell id="AKnml9NxmIc-Cpv7l16K-7" value="" style="rounded=1;whiteSpace=wrap;html=1;sketch=1;jiggle=2;curveFitting=1;strokeColor=default;align=center;verticalAlign=middle;fontFamily=Gloria Hallelujah;fontSource=https%3A%2F%2Ffonts.googleapis.com%2Fcss%3Ffamily%3DGloria%2BHallelujah;fontSize=16;fontColor=default;fillColor=default;arcSize=3;" vertex="1" parent="AKnml9NxmIc-Cpv7l16K-1">
          <mxGeometry x="250" y="-50" width="560" height="290" as="geometry" />
        </mxCell>
        <mxCell id="AKnml9NxmIc-Cpv7l16K-9" value="Demo VPC" style="rounded=1;whiteSpace=wrap;html=1;sketch=1;jiggle=2;curveFitting=1;strokeColor=default;align=center;verticalAlign=bottom;fontFamily=Gloria Hallelujah;fontSource=https%3A%2F%2Ffonts.googleapis.com%2Fcss%3Ffamily%3DGloria%2BHallelujah;fontSize=16;fontColor=default;fillColor=default;arcSize=7;" vertex="1" parent="AKnml9NxmIc-Cpv7l16K-1">
          <mxGeometry x="280" width="510" height="200" as="geometry" />
        </mxCell>
        <mxCell id="AKnml9NxmIc-Cpv7l16K-10" value="" style="rounded=0;whiteSpace=wrap;html=1;sketch=1;jiggle=2;curveFitting=1;strokeColor=default;align=center;verticalAlign=middle;fontFamily=Gloria Hallelujah;fontSource=https%3A%2F%2Ffonts.googleapis.com%2Fcss%3Ffamily%3DGloria%2BHallelujah;fontSize=16;fontColor=default;fillColor=default;" vertex="1" parent="AKnml9NxmIc-Cpv7l16K-1">
          <mxGeometry x="486.16" y="30" width="269.84" height="140" as="geometry" />
        </mxCell>
        <mxCell id="AKnml9NxmIc-Cpv7l16K-11" value="" style="sketch=0;points=[[0,0,0],[0.25,0,0],[0.5,0,0],[0.75,0,0],[1,0,0],[0,1,0],[0.25,1,0],[0.5,1,0],[0.75,1,0],[1,1,0],[0,0.25,0],[0,0.5,0],[0,0.75,0],[1,0.25,0],[1,0.5,0],[1,0.75,0]];outlineConnect=0;fontColor=#232F3E;fillColor=#ED7100;strokeColor=#ffffff;dashed=0;verticalLabelPosition=bottom;verticalAlign=top;align=center;html=1;fontSize=12;fontStyle=0;aspect=fixed;shape=mxgraph.aws4.resourceIcon;resIcon=mxgraph.aws4.eks;rounded=1;jiggle=2;curveFitting=1;fontFamily=Gloria Hallelujah;fontSource=https%3A%2F%2Ffonts.googleapis.com%2Fcss%3Ffamily%3DGloria%2BHallelujah;" vertex="1" parent="AKnml9NxmIc-Cpv7l16K-1">
          <mxGeometry x="476" y="10" width="48" height="48" as="geometry" />
        </mxCell>
        <mxCell id="VHwAGWiwYtG1AxDDcsj9-21" style="edgeStyle=orthogonalEdgeStyle;curved=1;rounded=0;orthogonalLoop=1;jettySize=auto;html=1;strokeColor=#FFFFFF;strokeWidth=2;align=center;verticalAlign=middle;fontFamily=Gloria Hallelujah;fontSource=https%3A%2F%2Ffonts.googleapis.com%2Fcss%3Ffamily%3DGloria%2BHallelujah;fontSize=16;fontColor=default;labelBackgroundColor=default;endArrow=classic;flowAnimation=0;sketch=1;curveFitting=1;jiggle=2;" edge="1" parent="AKnml9NxmIc-Cpv7l16K-1" source="AKnml9NxmIc-Cpv7l16K-12" target="VHwAGWiwYtG1AxDDcsj9-20">
          <mxGeometry relative="1" as="geometry" />
        </mxCell>
        <mxCell id="AKnml9NxmIc-Cpv7l16K-12" value="EKS Nodes" style="sketch=0;points=[[0,0,0],[0.25,0,0],[0.5,0,0],[0.75,0,0],[1,0,0],[0,1,0],[0.25,1,0],[0.5,1,0],[0.75,1,0],[1,1,0],[0,0.25,0],[0,0.5,0],[0,0.75,0],[1,0.25,0],[1,0.5,0],[1,0.75,0]];outlineConnect=0;fontColor=default;fillColor=#ED7100;strokeColor=#ffffff;dashed=0;verticalLabelPosition=bottom;verticalAlign=top;align=center;html=1;fontSize=12;fontStyle=0;aspect=fixed;shape=mxgraph.aws4.resourceIcon;resIcon=mxgraph.aws4.ec2;rounded=1;jiggle=2;curveFitting=1;fontFamily=Gloria Hallelujah;fontSource=https%3A%2F%2Ffonts.googleapis.com%2Fcss%3Ffamily%3DGloria%2BHallelujah;" vertex="1" parent="AKnml9NxmIc-Cpv7l16K-1">
          <mxGeometry x="536" y="60" width="48" height="48" as="geometry" />
        </mxCell>
        <mxCell id="AKnml9NxmIc-Cpv7l16K-13" value="EKS Nodes" style="sketch=0;points=[[0,0,0],[0.25,0,0],[0.5,0,0],[0.75,0,0],[1,0,0],[0,1,0],[0.25,1,0],[0.5,1,0],[0.75,1,0],[1,1,0],[0,0.25,0],[0,0.5,0],[0,0.75,0],[1,0.25,0],[1,0.5,0],[1,0.75,0]];outlineConnect=0;fontColor=default;fillColor=#ED7100;strokeColor=#ffffff;dashed=0;verticalLabelPosition=bottom;verticalAlign=top;align=center;html=1;fontSize=12;fontStyle=0;aspect=fixed;shape=mxgraph.aws4.resourceIcon;resIcon=mxgraph.aws4.ec2;rounded=1;jiggle=2;curveFitting=1;fontFamily=Gloria Hallelujah;fontSource=https%3A%2F%2Ffonts.googleapis.com%2Fcss%3Ffamily%3DGloria%2BHallelujah;" vertex="1" parent="AKnml9NxmIc-Cpv7l16K-1">
          <mxGeometry x="626" y="60" width="48" height="48" as="geometry" />
        </mxCell>
        <mxCell id="AKnml9NxmIc-Cpv7l16K-14" value="1" style="ellipse;whiteSpace=wrap;html=1;aspect=fixed;rounded=1;sketch=1;jiggle=2;curveFitting=1;strokeColor=#d6b656;align=center;verticalAlign=middle;fontFamily=Gloria Hallelujah;fontSource=https%3A%2F%2Ffonts.googleapis.com%2Fcss%3Ffamily%3DGloria%2BHallelujah;fontSize=26;fillColor=#fff2cc;gradientColor=#ffd966;fontColor=#000000;" vertex="1" parent="AKnml9NxmIc-Cpv7l16K-1">
          <mxGeometry x="430" y="520" width="50" height="50" as="geometry" />
        </mxCell>
        <mxCell id="AKnml9NxmIc-Cpv7l16K-15" value="Deploy Cortex XDR Agent for Cloud&amp;nbsp;&lt;div&gt;i.e.new version XDR Agent&lt;/div&gt;" style="edgeStyle=orthogonalEdgeStyle;rounded=0;orthogonalLoop=1;jettySize=auto;html=1;exitX=0.5;exitY=0;exitDx=0;exitDy=0;entryX=1;entryY=0.25;entryDx=0;entryDy=0;fontFamily=Gloria Hallelujah;fontSource=https%3A%2F%2Ffonts.googleapis.com%2Fcss%3Ffamily%3DGloria%2BHallelujah;fontSize=16;fontColor=default;curved=1;strokeWidth=2;flowAnimation=1;" edge="1" parent="AKnml9NxmIc-Cpv7l16K-1" source="AKnml9NxmIc-Cpv7l16K-5" target="AKnml9NxmIc-Cpv7l16K-29">
          <mxGeometry x="-0.8706" y="-110" relative="1" as="geometry">
            <mxPoint as="offset" />
          </mxGeometry>
        </mxCell>
        <mxCell id="AKnml9NxmIc-Cpv7l16K-16" value="Yaml&lt;div&gt;Helm&lt;/div&gt;" style="whiteSpace=wrap;html=1;shape=mxgraph.basic.document;rounded=1;sketch=1;jiggle=2;curveFitting=1;strokeColor=default;align=center;verticalAlign=middle;fontFamily=Gloria Hallelujah;fontSource=https%3A%2F%2Ffonts.googleapis.com%2Fcss%3Ffamily%3DGloria%2BHallelujah;fontSize=16;fontColor=default;fillColor=default;" vertex="1" parent="AKnml9NxmIc-Cpv7l16K-1">
          <mxGeometry x="860" y="190" width="80" height="100" as="geometry" />
        </mxCell>
        <mxCell id="AKnml9NxmIc-Cpv7l16K-17" value="2" style="ellipse;whiteSpace=wrap;html=1;aspect=fixed;rounded=1;sketch=1;jiggle=2;curveFitting=1;strokeColor=#d6b656;align=center;verticalAlign=middle;fontFamily=Gloria Hallelujah;fontSource=https%3A%2F%2Ffonts.googleapis.com%2Fcss%3Ffamily%3DGloria%2BHallelujah;fontSize=26;fillColor=#fff2cc;gradientColor=#ffd966;fontColor=#000000;" vertex="1" parent="AKnml9NxmIc-Cpv7l16K-1">
          <mxGeometry x="840" y="480" width="50" height="50" as="geometry" />
        </mxCell>
        <mxCell id="AKnml9NxmIc-Cpv7l16K-18" value="Enable Vulnerability &amp;amp; Compliance Scanning" style="text;html=1;align=center;verticalAlign=middle;whiteSpace=wrap;rounded=0;fontFamily=Gloria Hallelujah;fontSource=https%3A%2F%2Ffonts.googleapis.com%2Fcss%3Ffamily%3DGloria%2BHallelujah;fontSize=16;fontColor=default;" vertex="1" parent="AKnml9NxmIc-Cpv7l16K-1">
          <mxGeometry x="840" y="550" width="180" height="30" as="geometry" />
        </mxCell>
        <mxCell id="AKnml9NxmIc-Cpv7l16K-19" value="Managed as&lt;div&gt;and a Endpoint&lt;/div&gt;" style="edgeStyle=orthogonalEdgeStyle;curved=1;rounded=0;orthogonalLoop=1;jettySize=auto;html=1;exitX=0.75;exitY=1;exitDx=0;exitDy=0;entryX=0.107;entryY=0.011;entryDx=0;entryDy=0;entryPerimeter=0;strokeColor=#FF00FF;strokeWidth=2;align=center;verticalAlign=middle;fontFamily=Gloria Hallelujah;fontSource=https%3A%2F%2Ffonts.googleapis.com%2Fcss%3Ffamily%3DGloria%2BHallelujah;fontSize=16;fontColor=default;labelBackgroundColor=default;endArrow=classic;flowAnimation=1;" edge="1" parent="AKnml9NxmIc-Cpv7l16K-1" source="AKnml9NxmIc-Cpv7l16K-29" target="AKnml9NxmIc-Cpv7l16K-5">
          <mxGeometry x="0.5936" y="-20" relative="1" as="geometry">
            <mxPoint as="offset" />
          </mxGeometry>
        </mxCell>
        <mxCell id="AKnml9NxmIc-Cpv7l16K-20" value="3" style="ellipse;whiteSpace=wrap;html=1;aspect=fixed;rounded=1;sketch=1;jiggle=2;curveFitting=1;strokeColor=#d6b656;align=center;verticalAlign=middle;fontFamily=Gloria Hallelujah;fontSource=https%3A%2F%2Ffonts.googleapis.com%2Fcss%3Ffamily%3DGloria%2BHallelujah;fontSize=26;fillColor=#fff2cc;gradientColor=#ffd966;fontColor=#000000;" vertex="1" parent="AKnml9NxmIc-Cpv7l16K-1">
          <mxGeometry x="830" y="260" width="50" height="50" as="geometry" />
        </mxCell>
        <mxCell id="AKnml9NxmIc-Cpv7l16K-21" value="4" style="ellipse;whiteSpace=wrap;html=1;aspect=fixed;rounded=1;sketch=1;jiggle=2;curveFitting=1;strokeColor=#6c8ebf;align=center;verticalAlign=middle;fontFamily=Gloria Hallelujah;fontSource=https%3A%2F%2Ffonts.googleapis.com%2Fcss%3Ffamily%3DGloria%2BHallelujah;fontSize=26;fillColor=#dae8fc;gradientColor=#7ea6e0;fontColor=#000000;" vertex="1" parent="AKnml9NxmIc-Cpv7l16K-1">
          <mxGeometry x="570" y="250" width="50" height="50" as="geometry" />
        </mxCell>
        <mxCell id="AKnml9NxmIc-Cpv7l16K-22" value="5" style="ellipse;whiteSpace=wrap;html=1;aspect=fixed;rounded=1;sketch=1;jiggle=2;curveFitting=1;strokeColor=#6c8ebf;align=center;verticalAlign=middle;fontFamily=Gloria Hallelujah;fontSource=https%3A%2F%2Ffonts.googleapis.com%2Fcss%3Ffamily%3DGloria%2BHallelujah;fontSize=26;fillColor=#dae8fc;gradientColor=#7ea6e0;fontColor=#000000;" vertex="1" parent="AKnml9NxmIc-Cpv7l16K-1">
          <mxGeometry x="420" y="340" width="50" height="50" as="geometry" />
        </mxCell>
        <mxCell id="AKnml9NxmIc-Cpv7l16K-23" value="" style="shape=image;imageAspect=0;aspect=fixed;verticalLabelPosition=bottom;verticalAlign=top;rounded=1;sketch=1;jiggle=2;curveFitting=1;strokeColor=default;align=center;fontFamily=Gloria Hallelujah;fontSource=https%3A%2F%2Ffonts.googleapis.com%2Fcss%3Ffamily%3DGloria%2BHallelujah;fontSize=16;fontColor=default;labelBackgroundColor=default;fillColor=default;image=https://plugins.jetbrains.com/files/21907/522769/icon/pluginIcon.png;" vertex="1" parent="AKnml9NxmIc-Cpv7l16K-1">
          <mxGeometry x="120" y="400" width="50" height="50" as="geometry" />
        </mxCell>
        <mxCell id="VHwAGWiwYtG1AxDDcsj9-8" value="IR" style="edgeStyle=orthogonalEdgeStyle;rounded=0;sketch=1;hachureGap=4;jiggle=2;curveFitting=1;orthogonalLoop=1;jettySize=auto;html=1;entryX=0.5;entryY=1;entryDx=0;entryDy=0;fontFamily=Architects Daughter;fontSource=https%3A%2F%2Ffonts.googleapis.com%2Fcss%3Ffamily%3DArchitects%2BDaughter;exitX=0.25;exitY=0.1;exitDx=0;exitDy=0;exitPerimeter=0;fontSize=16;" edge="1" parent="AKnml9NxmIc-Cpv7l16K-1" source="AKnml9NxmIc-Cpv7l16K-25" target="AKnml9NxmIc-Cpv7l16K-5">
          <mxGeometry relative="1" as="geometry" />
        </mxCell>
        <mxCell id="VHwAGWiwYtG1AxDDcsj9-25" value="Security&lt;div&gt;Automation&lt;/div&gt;" style="edgeStyle=orthogonalEdgeStyle;rounded=0;sketch=1;hachureGap=4;jiggle=2;curveFitting=1;orthogonalLoop=1;jettySize=auto;html=1;exitX=0;exitY=0.3333333333333333;exitDx=0;exitDy=0;exitPerimeter=0;entryX=1;entryY=0.25;entryDx=0;entryDy=0;strokeColor=default;align=center;verticalAlign=middle;fontFamily=Architects Daughter;fontSource=https%3A%2F%2Ffonts.googleapis.com%2Fcss%3Ffamily%3DArchitects%2BDaughter;fontSize=16;fontColor=default;labelBackgroundColor=default;endArrow=classic;" edge="1" parent="AKnml9NxmIc-Cpv7l16K-1" source="AKnml9NxmIc-Cpv7l16K-25" target="VHwAGWiwYtG1AxDDcsj9-9">
          <mxGeometry relative="1" as="geometry">
            <Array as="points">
              <mxPoint x="710" y="620" />
              <mxPoint x="710" y="693" />
            </Array>
          </mxGeometry>
        </mxCell>
        <mxCell id="VHwAGWiwYtG1AxDDcsj9-26" value="No Siem&lt;div&gt;operation&lt;/div&gt;" style="edgeStyle=orthogonalEdgeStyle;rounded=0;sketch=1;hachureGap=4;jiggle=2;curveFitting=1;orthogonalLoop=1;jettySize=auto;html=1;exitX=0.5;exitY=0.5;exitDx=0;exitDy=0;exitPerimeter=0;entryX=1;entryY=0.5;entryDx=0;entryDy=0;strokeColor=default;align=center;verticalAlign=middle;fontFamily=Architects Daughter;fontSource=https%3A%2F%2Ffonts.googleapis.com%2Fcss%3Ffamily%3DArchitects%2BDaughter;fontSize=16;fontColor=default;labelBackgroundColor=default;endArrow=classic;" edge="1" parent="AKnml9NxmIc-Cpv7l16K-1" source="AKnml9NxmIc-Cpv7l16K-25" target="VHwAGWiwYtG1AxDDcsj9-11">
          <mxGeometry relative="1" as="geometry">
            <Array as="points">
              <mxPoint x="760" y="630" />
              <mxPoint x="760" y="825" />
            </Array>
          </mxGeometry>
        </mxCell>
        <mxCell id="AKnml9NxmIc-Cpv7l16K-25" value="SecOps" style="shape=umlActor;verticalLabelPosition=bottom;verticalAlign=top;html=1;outlineConnect=0;sketch=1;hachureGap=4;jiggle=2;curveFitting=1;fontFamily=Architects Daughter;fontSource=https%3A%2F%2Ffonts.googleapis.com%2Fcss%3Ffamily%3DArchitects%2BDaughter;fontSize=16;" vertex="1" parent="AKnml9NxmIc-Cpv7l16K-1">
          <mxGeometry x="805" y="600" width="30" height="60" as="geometry" />
        </mxCell>
        <mxCell id="AKnml9NxmIc-Cpv7l16K-26" value="DevOps" style="shape=umlActor;verticalLabelPosition=bottom;verticalAlign=top;html=1;outlineConnect=0;sketch=1;hachureGap=4;jiggle=2;curveFitting=1;fontFamily=Architects Daughter;fontSource=https%3A%2F%2Ffonts.googleapis.com%2Fcss%3Ffamily%3DArchitects%2BDaughter;fontSize=16;" vertex="1" parent="AKnml9NxmIc-Cpv7l16K-1">
          <mxGeometry x="100" y="600" width="30" height="60" as="geometry" />
        </mxCell>
        <mxCell id="AKnml9NxmIc-Cpv7l16K-27" value="CloudOps" style="shape=umlActor;verticalLabelPosition=bottom;verticalAlign=top;html=1;outlineConnect=0;sketch=1;hachureGap=4;jiggle=2;curveFitting=1;fontFamily=Architects Daughter;fontSource=https%3A%2F%2Ffonts.googleapis.com%2Fcss%3Ffamily%3DArchitects%2BDaughter;fontSize=16;" vertex="1" parent="AKnml9NxmIc-Cpv7l16K-1">
          <mxGeometry x="173" y="600" width="30" height="60" as="geometry" />
        </mxCell>
        <mxCell id="AKnml9NxmIc-Cpv7l16K-28" value="" style="edgeStyle=orthogonalEdgeStyle;curved=1;rounded=0;orthogonalLoop=1;jettySize=auto;html=1;exitX=1;exitY=0.75;exitDx=0;exitDy=0;exitPerimeter=0;entryX=0.107;entryY=0.011;entryDx=0;entryDy=0;entryPerimeter=0;strokeColor=#7F00FF;strokeWidth=2;align=center;verticalAlign=middle;fontFamily=Gloria Hallelujah;fontSource=https%3A%2F%2Ffonts.googleapis.com%2Fcss%3Ffamily%3DGloria%2BHallelujah;fontSize=16;fontColor=default;labelBackgroundColor=default;endArrow=classic;flowAnimation=1;" edge="1" parent="AKnml9NxmIc-Cpv7l16K-1" source="AKnml9NxmIc-Cpv7l16K-13" target="AKnml9NxmIc-Cpv7l16K-29">
          <mxGeometry x="0.5936" y="-20" relative="1" as="geometry">
            <mxPoint as="offset" />
            <mxPoint x="674" y="96" as="sourcePoint" />
            <mxPoint x="886" y="381" as="targetPoint" />
          </mxGeometry>
        </mxCell>
        <mxCell id="AKnml9NxmIc-Cpv7l16K-29" value="Single&lt;div&gt;Agent&lt;/div&gt;" style="rounded=1;whiteSpace=wrap;html=1;sketch=1;hachureGap=4;jiggle=2;curveFitting=1;fontFamily=Architects Daughter;fontSource=https%3A%2F%2Ffonts.googleapis.com%2Fcss%3Ffamily%3DArchitects%2BDaughter;" vertex="1" parent="AKnml9NxmIc-Cpv7l16K-1">
          <mxGeometry x="674" y="80" width="50" height="40" as="geometry" />
        </mxCell>
        <mxCell id="AKnml9NxmIc-Cpv7l16K-30" value="" style="shape=image;imageAspect=0;aspect=fixed;verticalLabelPosition=bottom;verticalAlign=top;rounded=1;sketch=1;jiggle=2;curveFitting=1;strokeColor=default;align=center;fontFamily=Gloria Hallelujah;fontSource=https%3A%2F%2Ffonts.googleapis.com%2Fcss%3Ffamily%3DGloria%2BHallelujah;fontSize=16;fontColor=default;labelBackgroundColor=default;fillColor=default;image=https://plugins.jetbrains.com/files/21907/522769/icon/pluginIcon.png;" vertex="1" parent="AKnml9NxmIc-Cpv7l16K-1">
          <mxGeometry x="674" y="50" width="30" height="30" as="geometry" />
        </mxCell>
        <mxCell id="VHwAGWiwYtG1AxDDcsj9-1" value="" style="shape=image;imageAspect=0;aspect=fixed;verticalLabelPosition=bottom;verticalAlign=top;sketch=1;hachureGap=4;jiggle=2;curveFitting=1;fontFamily=Architects Daughter;fontSource=https%3A%2F%2Ffonts.googleapis.com%2Fcss%3Ffamily%3DArchitects%2BDaughter;image=https://lh3.googleusercontent.com/YlwczxRATj_a4sGRLSJi7JzhGsxiYupSzuAu1i94PlJ6CYl71ghwYgeiDiEyDQxD8NRQI62OWXLxpbdz2Qk;" vertex="1" parent="AKnml9NxmIc-Cpv7l16K-1">
          <mxGeometry x="708.23" y="55" width="15.71" height="20" as="geometry" />
        </mxCell>
        <mxCell id="VHwAGWiwYtG1AxDDcsj9-2" value="" style="shape=image;imageAspect=0;aspect=fixed;verticalLabelPosition=bottom;verticalAlign=top;sketch=1;hachureGap=4;jiggle=2;curveFitting=1;fontFamily=Architects Daughter;fontSource=https%3A%2F%2Ffonts.googleapis.com%2Fcss%3Ffamily%3DArchitects%2BDaughter;image=https://lh3.googleusercontent.com/YlwczxRATj_a4sGRLSJi7JzhGsxiYupSzuAu1i94PlJ6CYl71ghwYgeiDiEyDQxD8NRQI62OWXLxpbdz2Qk;" vertex="1" parent="AKnml9NxmIc-Cpv7l16K-1">
          <mxGeometry x="700" y="405.91" width="30" height="38.19" as="geometry" />
        </mxCell>
        <mxCell id="VHwAGWiwYtG1AxDDcsj9-3" value="" style="shape=image;verticalLabelPosition=bottom;labelBackgroundColor=default;verticalAlign=top;aspect=fixed;imageAspect=0;image=https://logos-world.net/wp-content/uploads/2021/08/Amazon-Web-Services-AWS-Logo.png;" vertex="1" parent="AKnml9NxmIc-Cpv7l16K-1">
          <mxGeometry x="200" y="-100" width="150" height="84.38" as="geometry" />
        </mxCell>
        <mxCell id="VHwAGWiwYtG1AxDDcsj9-6" value="CWP" style="edgeStyle=orthogonalEdgeStyle;rounded=0;sketch=1;hachureGap=4;jiggle=2;curveFitting=1;orthogonalLoop=1;jettySize=auto;html=1;entryX=0.161;entryY=1.033;entryDx=0;entryDy=0;entryPerimeter=0;fontFamily=Architects Daughter;fontSource=https%3A%2F%2Ffonts.googleapis.com%2Fcss%3Ffamily%3DArchitects%2BDaughter;fontSize=16;" edge="1" parent="AKnml9NxmIc-Cpv7l16K-1" source="AKnml9NxmIc-Cpv7l16K-26" target="AKnml9NxmIc-Cpv7l16K-2">
          <mxGeometry relative="1" as="geometry" />
        </mxCell>
        <mxCell id="VHwAGWiwYtG1AxDDcsj9-7" value="CSPM" style="edgeStyle=orthogonalEdgeStyle;rounded=0;sketch=1;hachureGap=4;jiggle=2;curveFitting=1;orthogonalLoop=1;jettySize=auto;html=1;entryX=0.354;entryY=1.022;entryDx=0;entryDy=0;entryPerimeter=0;fontFamily=Architects Daughter;fontSource=https%3A%2F%2Ffonts.googleapis.com%2Fcss%3Ffamily%3DArchitects%2BDaughter;fontSize=16;" edge="1" parent="AKnml9NxmIc-Cpv7l16K-1" source="AKnml9NxmIc-Cpv7l16K-27" target="AKnml9NxmIc-Cpv7l16K-2">
          <mxGeometry relative="1" as="geometry" />
        </mxCell>
        <mxCell id="VHwAGWiwYtG1AxDDcsj9-27" style="edgeStyle=orthogonalEdgeStyle;curved=1;rounded=0;sketch=1;jiggle=2;curveFitting=1;orthogonalLoop=1;jettySize=auto;html=1;exitX=0;exitY=0.75;exitDx=0;exitDy=0;entryX=0;entryY=0.25;entryDx=0;entryDy=0;strokeColor=#FFFFFF;strokeWidth=2;align=center;verticalAlign=middle;fontFamily=Gloria Hallelujah;fontSource=https%3A%2F%2Ffonts.googleapis.com%2Fcss%3Ffamily%3DGloria%2BHallelujah;fontSize=16;fontColor=default;labelBackgroundColor=default;endArrow=classic;flowAnimation=0;" edge="1" parent="AKnml9NxmIc-Cpv7l16K-1" source="VHwAGWiwYtG1AxDDcsj9-9" target="VHwAGWiwYtG1AxDDcsj9-11">
          <mxGeometry relative="1" as="geometry" />
        </mxCell>
        <mxCell id="VHwAGWiwYtG1AxDDcsj9-9" value="Cortex XSOAR" style="rounded=1;whiteSpace=wrap;html=1;sketch=1;jiggle=2;curveFitting=1;strokeColor=default;align=center;verticalAlign=middle;fontFamily=Gloria Hallelujah;fontSize=20;fontColor=default;fillColor=default;fontSource=https%3A%2F%2Ffonts.googleapis.com%2Fcss%3Ffamily%3DGloria%2BHallelujah;spacingLeft=32;" vertex="1" parent="AKnml9NxmIc-Cpv7l16K-1">
          <mxGeometry x="420.09000000000003" y="670" width="240" height="90" as="geometry" />
        </mxCell>
        <mxCell id="VHwAGWiwYtG1AxDDcsj9-10" value="" style="shape=image;imageAspect=0;aspect=fixed;verticalLabelPosition=bottom;verticalAlign=top;sketch=1;hachureGap=4;jiggle=2;curveFitting=1;fontFamily=Architects Daughter;fontSource=https%3A%2F%2Ffonts.googleapis.com%2Fcss%3Ffamily%3DArchitects%2BDaughter;image=https://lh3.googleusercontent.com/YlwczxRATj_a4sGRLSJi7JzhGsxiYupSzuAu1i94PlJ6CYl71ghwYgeiDiEyDQxD8NRQI62OWXLxpbdz2Qk;" vertex="1" parent="AKnml9NxmIc-Cpv7l16K-1">
          <mxGeometry x="440.09000000000003" y="695.9100000000001" width="30" height="38.19" as="geometry" />
        </mxCell>
        <mxCell id="VHwAGWiwYtG1AxDDcsj9-11" value="Cortex XSIAM" style="rounded=1;whiteSpace=wrap;html=1;sketch=1;jiggle=2;curveFitting=1;strokeColor=default;align=center;verticalAlign=middle;fontFamily=Gloria Hallelujah;fontSize=20;fontColor=default;fillColor=default;fontSource=https%3A%2F%2Ffonts.googleapis.com%2Fcss%3Ffamily%3DGloria%2BHallelujah;spacingLeft=32;" vertex="1" parent="AKnml9NxmIc-Cpv7l16K-1">
          <mxGeometry x="420.09000000000003" y="780" width="240" height="90" as="geometry" />
        </mxCell>
        <mxCell id="VHwAGWiwYtG1AxDDcsj9-12" value="" style="shape=image;imageAspect=0;aspect=fixed;verticalLabelPosition=bottom;verticalAlign=top;sketch=1;hachureGap=4;jiggle=2;curveFitting=1;fontFamily=Architects Daughter;fontSource=https%3A%2F%2Ffonts.googleapis.com%2Fcss%3Ffamily%3DArchitects%2BDaughter;image=https://lh3.googleusercontent.com/YlwczxRATj_a4sGRLSJi7JzhGsxiYupSzuAu1i94PlJ6CYl71ghwYgeiDiEyDQxD8NRQI62OWXLxpbdz2Qk;" vertex="1" parent="AKnml9NxmIc-Cpv7l16K-1">
          <mxGeometry x="440.09000000000003" y="805.9100000000001" width="30" height="38.19" as="geometry" />
        </mxCell>
        <mxCell id="VHwAGWiwYtG1AxDDcsj9-24" value="Attack&lt;div&gt;Surface Management&lt;/div&gt;" style="edgeStyle=orthogonalEdgeStyle;curved=1;rounded=0;sketch=1;jiggle=2;curveFitting=1;orthogonalLoop=1;jettySize=auto;html=1;exitX=0.25;exitY=1;exitDx=0;exitDy=0;entryX=0.5;entryY=0;entryDx=0;entryDy=0;strokeColor=#FFFFFF;strokeWidth=2;align=center;verticalAlign=middle;fontFamily=Gloria Hallelujah;fontSource=https%3A%2F%2Ffonts.googleapis.com%2Fcss%3Ffamily%3DGloria%2BHallelujah;fontSize=16;fontColor=default;labelBackgroundColor=default;endArrow=classic;flowAnimation=0;" edge="1" parent="AKnml9NxmIc-Cpv7l16K-1" source="VHwAGWiwYtG1AxDDcsj9-15" target="VHwAGWiwYtG1AxDDcsj9-20">
          <mxGeometry x="-0.6572" y="-10" relative="1" as="geometry">
            <mxPoint as="offset" />
          </mxGeometry>
        </mxCell>
        <mxCell id="VHwAGWiwYtG1AxDDcsj9-15" value="Cortex Xpanse" style="rounded=1;whiteSpace=wrap;html=1;sketch=1;jiggle=2;curveFitting=1;strokeColor=default;align=center;verticalAlign=middle;fontFamily=Gloria Hallelujah;fontSize=20;fontColor=default;fillColor=default;fontSource=https%3A%2F%2Ffonts.googleapis.com%2Fcss%3Ffamily%3DGloria%2BHallelujah;spacingLeft=32;" vertex="1" parent="AKnml9NxmIc-Cpv7l16K-1">
          <mxGeometry x="420.09" y="-180" width="240" height="70" as="geometry" />
        </mxCell>
        <mxCell id="VHwAGWiwYtG1AxDDcsj9-16" value="" style="shape=image;imageAspect=0;aspect=fixed;verticalLabelPosition=bottom;verticalAlign=top;sketch=1;hachureGap=4;jiggle=2;curveFitting=1;fontFamily=Architects Daughter;fontSource=https%3A%2F%2Ffonts.googleapis.com%2Fcss%3Ffamily%3DArchitects%2BDaughter;image=https://lh3.googleusercontent.com/YlwczxRATj_a4sGRLSJi7JzhGsxiYupSzuAu1i94PlJ6CYl71ghwYgeiDiEyDQxD8NRQI62OWXLxpbdz2Qk;" vertex="1" parent="AKnml9NxmIc-Cpv7l16K-1">
          <mxGeometry x="430.09" y="-165.09999999999997" width="30" height="38.19" as="geometry" />
        </mxCell>
        <mxCell id="VHwAGWiwYtG1AxDDcsj9-19" value="" style="shape=image;verticalLabelPosition=bottom;labelBackgroundColor=default;verticalAlign=top;aspect=fixed;imageAspect=0;image=https://www.exclusive-networks.com/wp-content/uploads/2023/03/strata-logo-icon.png;" vertex="1" parent="AKnml9NxmIc-Cpv7l16K-1">
          <mxGeometry x="310" y="58.620000000000005" width="44.1" height="49.01" as="geometry" />
        </mxCell>
        <mxCell id="VHwAGWiwYtG1AxDDcsj9-20" value="Cloud NGFW&#xa;For AWS" style="shape=image;imageAspect=0;aspect=fixed;verticalLabelPosition=bottom;verticalAlign=top;sketch=1;jiggle=2;curveFitting=1;strokeColor=default;align=center;fontFamily=Gloria Hallelujah;fontSource=https%3A%2F%2Ffonts.googleapis.com%2Fcss%3Ffamily%3DGloria%2BHallelujah;fontSize=12;fontColor=default;fillColor=default;image=https://www.paloaltonetworks.co.uk/content/dam/pan/en_US/includes/igw/cloud-ngfw/assets/images/find-out-more/circle-logo-2.png;" vertex="1" parent="AKnml9NxmIc-Cpv7l16K-1">
          <mxGeometry x="366.1600000000001" y="46.25" width="73.93" height="73.75" as="geometry" />
        </mxCell>
      </root>
    </mxGraphModel>
  </diagram>
</mxfile>
